<?xml version="1.0" encoding="windows-1252"?>
<!-- Generator: Adobe Illustrator 19.1.1, SVG Export Plug-In . SVG Version: 6.00 Build 0)  -->
<svg version="1.1" xmlns="http://www.w3.org/2000/svg" xmlns:xlink="http://www.w3.org/1999/xlink" x="0px" y="0px" viewBox="0 0 40 40" style="enable-background:new 0 0 40 40;" xml:space="preserve">
<g>
	<path style="fill:#E1EBF2;" d="M4,37.5c-1.378,0-2.5-1.122-2.5-2.5V12c0-1.378,1.122-2.5,2.5-2.5h32c1.378,0,2.5,1.122,2.5,2.5v23   c0,1.378-1.122,2.5-2.5,2.5H4z"/>
	<path style="fill:#B0C1D4;" d="M36,10c1.103,0,2,0.897,2,2v23c0,1.103-0.897,2-2,2H4c-1.103,0-2-0.897-2-2l0-23   c0-1.103,0.897-2,2-2H36 M36,9H4c-1.657,0-3,1.343-3,3l0,23c0,1.657,1.343,3,3,3h32c1.657,0,3-1.343,3-3V12   C39,10.343,37.657,9,36,9L36,9z"/>
</g>
<g>
	<path style="fill:#C7D9E5;" d="M38,35V12c0-1.105-0.895-2-2-2H4c-1.105,0-2,0.895-2,2l18.772,25H36C37.105,37,38,36.105,38,35z"/>
</g>
<path style="fill:#FFFFFF;" d="M38,35V13.715L5,37h31C36.748,37,38,36.205,38,35z"/>
<path style="fill:#E1EBF2;" d="M20.772,37H36c1.105,0,2-0.895,2-2V13.715l-22.69,16.01L20.772,37z"/>
<g>
	<path style="fill:#C74343;" d="M4,37.5c-1.378,0-2.5-1.122-2.5-2.5V12.5h3v25H4z"/>
	<path style="fill:#AB3434;" d="M4,13v24c-1.103,0-2-0.897-2-2V13H4 M5,12H1v1v22c0,1.657,1.343,3,3,3h1V12L5,12z"/>
</g>
<g>
	<path style="fill:#C74343;" d="M35.5,37.5v-25h3V35c0,1.378-1.122,2.5-2.5,2.5H35.5z"/>
	<g>
		<path style="fill:#AB3434;" d="M38,13v22c0,1.103-0.897,2-2,2V13H38 M39,12h-4v26h1c1.657,0,3-1.343,3-3V12L39,12z"/>
	</g>
</g>
<g>
	<path style="fill:#FFFFFF;" d="M2.6,13.565c-0.288-0.201-1.1-0.911-1.1-1.542C1.5,10.622,2.622,9.5,4,9.5h32   c1.378,0,2.5,1.122,2.5,2.5c0,0.659-0.812,1.366-1.096,1.563L20,25.881L2.6,13.565z"/>
	<path style="fill:#B0C1D4;" d="M36,10c1.103,0,2,0.897,2,2.024c0,0.326-0.523,0.876-0.889,1.134L20,25.269L2.881,13.151   C2.522,12.902,2,12.339,2,12c0-1.103,0.897-2,2-2h16H36 M36,9H20H4c-1.657,0-3,1.343-3,3v0.023c0,1.042,1.311,1.95,1.311,1.95   L20,26.494l17.689-12.52c0,0,1.311-0.909,1.311-1.95V12C39,10.343,37.657,9,36,9L36,9z"/>
</g>
<g>
	<path style="fill:#F78F8F;" d="M2.6,13.564c-0.109-0.081-0.227-0.173-0.364-0.3c-0.261-0.243-0.465-0.497-0.589-0.731   C1.549,12.349,1.5,12.178,1.5,12.022c0-0.986,0.569-1.864,1.438-2.273L20,21.827L37.063,9.75C37.932,10.159,38.5,11.035,38.5,12   c0,0.101-0.012,0.183-0.037,0.269c-0.164,0.568-0.821,1.127-1.06,1.295L20,25.881L2.6,13.564z"/>
	<g>
		<path style="fill:#C74343;" d="M2.905,10.339l16.517,11.691L20,22.439l0.578-0.409L37.095,10.34C37.65,10.704,38,11.329,38,12.024    c0,0.03-0.006,0.066-0.017,0.106c-0.113,0.391-0.633,0.86-0.871,1.028L20,25.269L2.855,13.132    c-0.055-0.042-0.158-0.122-0.277-0.233c-0.221-0.206-0.39-0.414-0.49-0.601C2.031,12.191,2,12.093,2,12    C2,11.324,2.35,10.703,2.905,10.339 M3.003,9.183C1.839,9.595,1,10.695,1,12v0.023c0,0.26,0.082,0.513,0.205,0.744    c0.184,0.347,0.461,0.649,0.691,0.864c0.154,0.143,0.287,0.248,0.358,0.301c0.036,0.027,0.056,0.041,0.056,0.041L20,26.494    l17.689-12.52c0,0,1.004-0.696,1.255-1.568C38.979,12.282,39,12.154,39,12.024V12c0-1.305-0.838-2.404-2.002-2.817L20,21.214    L3.003,9.183L3.003,9.183z"/>
	</g>
</g>
<g>
	<polygon style="fill:#8BB7F0;" points="13.207,9.5 17.5,9.5 17.5,2.5 22.5,2.5 22.5,9.5 26.793,9.5 20,16.293  "/>
	<path style="fill:#4E7AB5;" d="M22,3v6v1h1h2.586L20,15.586L14.414,10H17h1V9V3H22 M23,2h-6v7h-5l8,8l8-8h-5V2L23,2z"/>
</g>
</svg>