<?xml version="1.0" encoding="UTF-8"?>
<svg viewBox="0 0 122.73871 195.8721" xmlns="http://www.w3.org/2000/svg">
 <g transform="matrix(.36731 0 0 .36731 -39.233 -7.1979)">
  <path d="m117.14 238.08h317.14v277.14c-85.097 24.353-169.19 49.895-317.14 0z"/>
  <path d="m163.97 235.9c-1.407-166.41 54.655-201.45 114.28-203.51 56.797-1.9626 108.95 45.702 109.23 203.51" fill="none" stroke="#000" stroke-width="25.503"/>
  <path d="m275.71 363.78c-14.247 0-25.796 11.549-25.796 25.796 0 8.6715 4.281 16.343 10.842 21.02l-8.0814 51.773h46.07l-6.8521-52.721c5.8555-4.7288 9.6131-11.96 9.6131-20.073 0-14.247-11.549-25.796-25.796-25.796z" fill="#fff"/>
  <path d="m109.28 244.65h329.22v277.14c-88.337 24.353-175.63 49.895-329.22 0z" fill="none" stroke="#000" stroke-width="4.9545"/>
 </g>
</svg>
